<?xml version="1.0" standalone="no"?>
<!DOCTYPE svg PUBLIC "-//W3C//DTD SVG 20010904//EN"
 "http://www.w3.org/TR/2001/REC-SVG-20010904/DTD/svg10.dtd">
<svg version="1.0" xmlns="http://www.w3.org/2000/svg"
 width="460.000000pt" height="460.000000pt" viewBox="0 0 460.000000 460.000000"
 preserveAspectRatio="xMidYMid meet">
<metadata>
Created by potrace 1.14, written by Peter Selinger 2001-2017
</metadata>
<g transform="translate(0.000000,460.000000) scale(0.100000,-0.100000)"
fill="#000000" stroke="none">
<path d="M1400 3886 c0 -61 27 -191 50 -238 l18 -37 -67 5 c-36 3 -128 12
-205 20 -76 8 -143 11 -148 8 -14 -9 -3 -141 18 -220 35 -134 106 -250 209
-341 l55 -48 -73 -1 c-96 -1 -161 -24 -232 -82 -44 -35 -68 -65 -94 -116 -31
-60 -36 -79 -39 -160 -4 -82 -1 -100 23 -162 63 -159 236 -261 400 -234 28 5
56 9 62 9 7 1 27 -27 44 -60 40 -80 103 -166 159 -215 24 -21 51 -46 60 -55
30 -29 145 -87 224 -113 121 -41 212 -49 480 -44 240 5 241 6 341 38 214 71
364 201 466 402 24 47 34 58 47 53 34 -14 142 -17 189 -6 87 22 149 58 202
118 75 85 94 143 89 273 -3 94 -7 111 -33 159 -38 69 -105 134 -173 168 -40
19 -73 27 -141 31 l-88 5 -7 85 c-16 211 -99 391 -238 520 -167 155 -304 209
-613 241 -315 33 -443 43 -454 36 -6 -3 -11 -19 -11 -35 0 -28 -2 -29 -26 -20
-50 20 -112 30 -240 40 -71 5 -157 12 -191 16 l-63 7 0 -47z"/>
<path d="M1972 1524 l-22 -15 0 -459 c0 -444 1 -460 19 -470 27 -14 47 -13 65
6 14 14 16 70 16 465 0 436 -1 450 -20 469 -24 24 -29 24 -58 4z"/>
<path d="M2618 1529 c-17 -9 -18 -43 -18 -478 0 -418 2 -470 16 -475 27 -10
52 -7 68 10 14 14 16 70 16 465 0 436 -1 450 -20 469 -22 22 -37 24 -62 9z"/>
</g>
</svg>
